<?xml version="1.0" encoding="UTF-8"?>
<svg id="Layer_1" data-name="Layer 1" xmlns="http://www.w3.org/2000/svg" viewBox="0 0 524.55 271">
  <defs>
    <style>
      .cls-1 {
        fill: #ad9b6f;
      }
    </style>
  </defs>
  <g>
    <path class="cls-1" d="M187.58,139.16c-3.01,0-5.24-.85-6.7-2.55s-2.19-4.07-2.19-7.13c0-2.3.39-4.22,1.16-5.75.78-1.53,1.86-2.68,3.25-3.45,1.39-.77,3.04-1.16,4.96-1.16.8,0,1.69.07,2.68.22.99.15,1.91.38,2.75.7.02.73.01,1.5-.03,2.33s-.12,1.64-.24,2.46h-1.61l-.58-2.8c-.07-.18-.15-.34-.24-.48-.09-.14-.23-.26-.41-.38-.27-.16-.68-.31-1.23-.44s-1.12-.21-1.71-.21c-1.73,0-3.1.67-4.1,2.02-1,1.35-1.5,3.51-1.5,6.5,0,1.73.19,3.25.56,4.57s.98,2.33,1.81,3.06c.83.73,1.92,1.09,3.27,1.09.55,0,1.09-.06,1.62-.17.54-.11.99-.31,1.35-.58.14-.11.26-.23.36-.36.1-.12.19-.29.26-.5l.86-2.56,1.61.14c.02.68,0,1.41-.05,2.19-.06.78-.14,1.53-.26,2.26-.73.3-1.6.54-2.62.72s-2.02.27-3.03.27Z"/>
    <path class="cls-1" d="M196.44,131.98c0-2.39.6-4.27,1.79-5.63,1.2-1.36,2.81-2.03,4.84-2.03,1.55,0,2.8.42,3.76,1.27.96.84,1.44,2.07,1.44,3.69,0,.23-.01.51-.03.84-.02.33-.06.63-.1.91h-9.75v-1.3h7.18c.02-.11.04-.22.05-.31.01-.09.02-.21.02-.34,0-.98-.26-1.78-.77-2.41-.51-.63-1.24-.94-2.17-.94-1.07,0-1.92.44-2.53,1.33-.62.89-.92,2.33-.92,4.31,0,1.5.18,2.7.55,3.57.37.88.86,1.5,1.49,1.88.63.38,1.35.56,2.17.56s1.54-.18,2.24-.55c.7-.36,1.25-.87,1.66-1.5l.86.51c-.3,1.03-.93,1.85-1.9,2.46-.97.62-2.17.92-3.61.92s-2.58-.31-3.5-.94c-.92-.63-1.61-1.48-2.07-2.56-.46-1.08-.68-2.33-.68-3.74Z"/>
    <path class="cls-1" d="M215.52,136.6c0,.46.22.72.65.79l1.81.27v1.23h-7.63v-1.27l1.81-.24c.46-.07.68-.32.68-.75v-17.24c0-.43-.23-.68-.68-.75l-1.88-.27v-1.13c.71-.21,1.51-.37,2.41-.5.9-.12,1.7-.2,2.41-.22l.41.41v19.66Z"/>
    <path class="cls-1" d="M220.04,131.98c0-2.39.6-4.27,1.79-5.63,1.2-1.36,2.81-2.03,4.84-2.03,1.55,0,2.8.42,3.76,1.27.96.84,1.44,2.07,1.44,3.69,0,.23-.01.51-.03.84-.02.33-.06.63-.1.91h-9.75v-1.3h7.18c.02-.11.04-.22.05-.31.01-.09.02-.21.02-.34,0-.98-.26-1.78-.77-2.41-.51-.63-1.24-.94-2.17-.94-1.07,0-1.92.44-2.53,1.33-.62.89-.92,2.33-.92,4.31,0,1.5.18,2.7.55,3.57.37.88.86,1.5,1.49,1.88.63.38,1.35.56,2.17.56s1.54-.18,2.24-.55c.7-.36,1.25-.87,1.66-1.5l.86.51c-.3,1.03-.93,1.85-1.9,2.46-.97.62-2.17.92-3.61.92s-2.58-.31-3.5-.94c-.92-.63-1.61-1.48-2.07-2.56-.46-1.08-.68-2.33-.68-3.74Z"/>
    <path class="cls-1" d="M235.63,119.4c0-.43-.22-.68-.65-.75l-1.85-.27v-1.13c.73-.21,1.52-.37,2.38-.5.85-.12,1.65-.2,2.38-.22l.41.38v20.31c.3.16.65.3,1.06.43.41.13.89.19,1.44.19,1.41,0,2.48-.47,3.21-1.42.73-.95,1.11-2.48,1.13-4.6.05-2.1-.27-3.56-.96-4.39-.68-.83-1.61-1.25-2.77-1.25-.75,0-1.42.14-2.02.43-.59.29-1.13.68-1.61,1.18l-.14-.96c.52-.71,1.18-1.3,1.97-1.78.79-.48,1.74-.72,2.86-.72,1.05,0,1.99.23,2.82.7.83.47,1.5,1.2,2,2.21.5,1,.75,2.3.75,3.9,0,2.49-.64,4.46-1.92,5.92-1.28,1.46-3.12,2.19-5.54,2.19-1.05,0-2.03-.11-2.94-.34s-1.58-.43-2.02-.62v-18.88Z"/>
    <path class="cls-1" d="M255.53,127.88v8.72c0,.48.24.74.72.79l2.5.27v1.23h-8.07v-1.27l1.5-.24c.46-.07.68-.33.68-.79v-9.27c0-.5-.23-.79-.68-.85l-1.71-.21v-1.23c.66-.21,1.37-.36,2.14-.48.76-.11,1.48-.18,2.14-.21l.41.41.38,3.11ZM254.92,127.91c.3-.55.71-1.1,1.25-1.66.54-.56,1.15-1.02,1.85-1.38s1.41-.55,2.14-.55c.25,0,.54.03.87.1.33.07.61.16.84.27.05.68.04,1.47-.02,2.34-.06.88-.17,1.68-.33,2.41h-1.26l-.38-1.95c-.07-.27-.17-.47-.29-.58-.13-.11-.31-.17-.56-.17-.66,0-1.35.17-2.05.5-.71.33-1.35.85-1.92,1.56l-.14-.89Z"/>
    <path class="cls-1" d="M267.6,139.16c-1.14,0-2.09-.3-2.86-.89-.76-.59-1.15-1.45-1.15-2.56,0-.96.28-1.72.84-2.27.56-.56,1.26-.96,2.1-1.21.84-.25,1.7-.41,2.56-.48l3.35-.27v1.3l-2.91.27c-1,.07-1.77.3-2.31.68-.54.39-.8.97-.8,1.74,0,.62.18,1.09.53,1.44s.88.51,1.59.51c.75,0,1.5-.17,2.24-.51.74-.34,1.3-.76,1.69-1.27l.31.65c-.48.84-1.18,1.53-2.1,2.07-.92.54-1.96.8-3.09.8ZM264.01,127.33c.34-.96,1.03-1.69,2.05-2.19,1.03-.5,2.2-.75,3.52-.75,1.66,0,2.91.42,3.73,1.25.82.83,1.23,2.1,1.23,3.81v7.08c0,.5.25.77.75.82l1.4.14v1.16c-.23.07-.58.16-1.06.27s-.92.17-1.33.17c-.68,0-1.23-.19-1.62-.58-.4-.39-.64-.96-.74-1.71v-6.98c0-1.28-.26-2.17-.77-2.68-.51-.51-1.29-.77-2.34-.77-.78,0-1.52.13-2.22.38-.71.25-1.36.66-1.95,1.23l-.65-.65Z"/>
    <path class="cls-1" d="M280.22,126.48l-2.16-.27v-1.16l1.57-.24c.23-.05.4-.12.51-.22s.19-.26.24-.46l.92-3.59h1.54l.03,4.14h4.65v1.71h-4.62v8.1c0,1.09.18,1.82.53,2.17.35.35.85.53,1.49.53.52,0,1.01-.09,1.45-.27.44-.18.83-.46,1.15-.82l.75.72c-.37.78-.93,1.36-1.69,1.74-.76.39-1.62.58-2.58.58-.68,0-1.32-.1-1.9-.31s-1.04-.58-1.38-1.13c-.34-.55-.51-1.32-.51-2.33v-8.89Z"/>
    <path class="cls-1" d="M294.96,136.6c0,.46.23.72.68.79l1.5.24v1.27h-7.04v-1.27l1.5-.24c.46-.07.68-.33.68-.79v-9.34c0-.46-.22-.71-.65-.75l-1.74-.24v-1.23c.73-.23,1.51-.39,2.34-.5s1.61-.17,2.34-.19l.38.41v11.83ZM295.16,120.53c0,.52-.17.95-.51,1.28-.34.33-.79.5-1.33.5s-.99-.17-1.33-.5c-.34-.33-.51-.76-.51-1.28s.17-.99.51-1.32c.34-.33.79-.5,1.33-.5s.99.17,1.33.5.51.77.51,1.32Z"/>
    <path class="cls-1" d="M299.27,138.89v-1.27l1.5-.24c.46-.07.68-.33.68-.79v-9.34c0-.43-.22-.68-.65-.75l-1.74-.24v-1.23c.68-.21,1.41-.36,2.17-.48.76-.11,1.48-.18,2.14-.21l.48.44.27,2.46v9.34c0,.46.22.72.65.79l1.4.24v1.27h-6.91ZM308.54,138.89v-1.27l1.37-.24c.21-.05.37-.12.5-.24.12-.11.19-.3.19-.55v-6.33c0-1.37-.19-2.39-.56-3.08-.38-.68-1.1-1.03-2.17-1.03-.84,0-1.65.16-2.41.48-.76.32-1.45.79-2.07,1.4l.1-1.06c.73-1,1.57-1.7,2.53-2.09.96-.39,1.95-.58,2.98-.58,1.64,0,2.76.48,3.35,1.44s.89,2.3.89,4.04v6.81c0,.46.23.72.68.79l1.54.24v1.27h-6.91Z"/>
    <path class="cls-1" d="M331,140.43c0,1.07-.34,2.01-1.01,2.8-.67.8-1.59,1.41-2.75,1.85-1.16.43-2.51.65-4.04.65-1.98,0-3.47-.36-4.45-1.08s-1.47-1.67-1.47-2.86c0-1.03.33-1.83.99-2.41.66-.58,1.47-1.03,2.43-1.35l.79.24c-.43.34-.81.75-1.13,1.23-.32.48-.48,1.09-.48,1.85,0,.84.27,1.54.8,2.09.54.55,1.53.82,2.99.82s2.52-.27,3.4-.82c.88-.55,1.32-1.38,1.32-2.5,0-.62-.18-1.1-.55-1.45-.37-.35-1.08-.53-2.15-.53h-3.18c-1.32,0-2.33-.21-3.03-.62-.7-.41-1.04-1.07-1.04-1.98,0-.84.28-1.49.84-1.95.56-.46,1.18-.81,1.86-1.06l.65.51c-.37.16-.66.37-.87.63-.22.26-.33.6-.33,1.01,0,.5.22.85.65,1.06.43.21,1.15.31,2.15.31h3.04c1.5,0,2.64.31,3.4.94.76.63,1.15,1.5,1.15,2.62ZM329.23,129.11c0,1.57-.54,2.83-1.61,3.76-1.07.94-2.52,1.4-4.34,1.4-1.12,0-2.09-.18-2.91-.55-.82-.36-1.46-.9-1.92-1.61-.46-.71-.68-1.58-.68-2.63,0-1.16.27-2.13.8-2.89.54-.76,1.26-1.33,2.17-1.71.91-.38,1.92-.56,3.01-.56,1.64,0,2.96.42,3.97,1.27,1,.84,1.5,2.02,1.5,3.52ZM320.5,129.21c0,1.21.25,2.13.74,2.75.49.63,1.28.94,2.38.94.96,0,1.68-.27,2.17-.82s.74-1.46.74-2.74-.25-2.2-.75-2.77c-.5-.57-1.28-.85-2.33-.85-.55,0-1.04.1-1.49.29-.45.19-.8.54-1.06,1.04-.26.5-.39,1.22-.39,2.15ZM327.86,126.58l-.68-.55c.48-.5.95-.91,1.42-1.23.47-.32.95-.48,1.45-.48.21,0,.43.03.68.09.25.06.49.11.72.15v2.02h-3.59Z"/>
    <path class="cls-1" d="M347.42,136.5c0,.41.23.65.68.72l2.57.41v1.27h-9.51v-1.27l2.84-.41c.23-.02.42-.09.56-.21.15-.11.22-.3.22-.55v-11.97c-.23.09-.55.19-.97.31-.42.11-.87.22-1.33.31-.47.09-.88.16-1.25.21l-.27-1.37c.59-.14,1.2-.33,1.81-.58.62-.25,1.2-.54,1.74-.85.55-.32,1.03-.65,1.44-.99l1.47.31v14.67Z"/>
    <path class="cls-1" d="M355.95,138.12c-.92-.74-1.59-1.76-2-3.06s-.62-2.78-.62-4.45c0-1.87.27-3.48.8-4.84.54-1.36,1.3-2.4,2.31-3.15,1-.74,2.2-1.11,3.59-1.11,1.53,0,2.75.37,3.68,1.11.92.74,1.59,1.76,2,3.06.41,1.3.62,2.78.62,4.45,0,1.87-.27,3.48-.8,4.84-.54,1.36-1.31,2.41-2.31,3.15-1,.74-2.2,1.11-3.59,1.11-1.53,0-2.75-.37-3.68-1.11ZM357.76,123.86c-.51.58-.88,1.4-1.11,2.46-.23,1.06-.34,2.32-.34,3.78,0,2.44.26,4.33.79,5.66.52,1.33,1.46,2,2.8,2,.82,0,1.48-.29,1.98-.87.5-.58.87-1.4,1.11-2.46s.36-2.32.36-3.78c0-2.46-.27-4.35-.8-5.68-.54-1.32-1.46-1.98-2.79-1.98-.82,0-1.49.29-2,.87Z"/>
    <path class="cls-1" d="M383.73,132.22l-6.05-10.53c-.16-.3-.42-.5-.79-.62l-1.54-.38v-1.27h7.56v1.27l-2.26.48,5.03,9.13h-.96l4.68-9.13-2.33-.48v-1.27h6.39v1.27l-1.54.34c-.18.07-.34.14-.46.22-.13.08-.23.21-.33.39l-5.51,10.57h-1.92ZM380.21,138.89v-1.27l2.39-.44c.46-.07.68-.32.68-.75v-5.33h2.8v5.33c0,.43.22.68.65.75l2.39.44v1.27h-8.93Z"/>
    <path class="cls-1" d="M392.8,131.98c0-2.39.6-4.27,1.79-5.63,1.2-1.36,2.81-2.03,4.84-2.03,1.55,0,2.8.42,3.76,1.27.96.84,1.44,2.07,1.44,3.69,0,.23-.01.51-.03.84-.02.33-.06.63-.1.91h-9.75v-1.3h7.18c.02-.11.04-.22.05-.31.01-.09.02-.21.02-.34,0-.98-.26-1.78-.77-2.41-.51-.63-1.24-.94-2.17-.94-1.07,0-1.92.44-2.53,1.33-.62.89-.92,2.33-.92,4.31,0,1.5.18,2.7.55,3.57.37.88.86,1.5,1.49,1.88.63.38,1.35.56,2.17.56s1.54-.18,2.24-.55c.7-.36,1.25-.87,1.66-1.5l.86.51c-.3,1.03-.93,1.85-1.9,2.46-.97.62-2.17.92-3.61.92s-2.58-.31-3.5-.94c-.92-.63-1.61-1.48-2.07-2.56-.46-1.08-.68-2.33-.68-3.74Z"/>
    <path class="cls-1" d="M411.26,139.16c-1.14,0-2.09-.3-2.86-.89-.76-.59-1.15-1.45-1.15-2.56,0-.96.28-1.72.84-2.27.56-.56,1.26-.96,2.1-1.21.84-.25,1.7-.41,2.56-.48l3.35-.27v1.3l-2.91.27c-1,.07-1.77.3-2.31.68-.54.39-.8.97-.8,1.74,0,.62.18,1.09.53,1.44s.88.51,1.59.51c.75,0,1.5-.17,2.24-.51.74-.34,1.3-.76,1.69-1.27l.31.65c-.48.84-1.18,1.53-2.1,2.07-.92.54-1.96.8-3.09.8ZM407.67,127.33c.34-.96,1.03-1.69,2.05-2.19,1.03-.5,2.2-.75,3.52-.75,1.66,0,2.91.42,3.73,1.25.82.83,1.23,2.1,1.23,3.81v7.08c0,.5.25.77.75.82l1.4.14v1.16c-.23.07-.58.16-1.06.27s-.92.17-1.33.17c-.68,0-1.23-.19-1.62-.58-.4-.39-.64-.96-.74-1.71v-6.98c0-1.28-.26-2.17-.77-2.68-.51-.51-1.29-.77-2.34-.77-.78,0-1.52.13-2.22.38-.71.25-1.36.66-1.95,1.23l-.65-.65Z"/>
    <path class="cls-1" d="M427.16,127.88v8.72c0,.48.24.74.72.79l2.5.27v1.23h-8.07v-1.27l1.5-.24c.46-.07.68-.33.68-.79v-9.27c0-.5-.23-.79-.68-.85l-1.71-.21v-1.23c.66-.21,1.37-.36,2.14-.48.76-.11,1.48-.18,2.14-.21l.41.41.38,3.11ZM426.55,127.91c.3-.55.71-1.1,1.25-1.66.54-.56,1.15-1.02,1.85-1.38s1.41-.55,2.14-.55c.25,0,.54.03.87.1.33.07.61.16.84.27.05.68.04,1.47-.02,2.34-.06.88-.17,1.68-.33,2.41h-1.26l-.38-1.95c-.07-.27-.17-.47-.29-.58-.13-.11-.31-.17-.56-.17-.66,0-1.35.17-2.05.5-.71.33-1.35.85-1.92,1.56l-.14-.89Z"/>
    <path class="cls-1" d="M435.78,138.17c-.09-.68-.13-1.35-.1-2,.02-.65.07-1.26.14-1.83h1.44l.51,1.88c.11.5.31.84.58,1.03.23.14.56.29,1.01.44.44.16.97.24,1.59.24.87,0,1.52-.2,1.97-.6.44-.4.67-.94.67-1.62,0-.52-.15-.95-.44-1.28-.3-.33-.73-.63-1.3-.91-.57-.27-1.27-.58-2.09-.92-1.12-.46-2.03-.97-2.74-1.56-.71-.58-1.06-1.44-1.06-2.58,0-1.37.48-2.4,1.45-3.09.97-.7,2.23-1.04,3.78-1.04.73,0,1.48.08,2.26.24.77.16,1.42.35,1.95.58.02.62.01,1.23-.03,1.85-.05.62-.13,1.22-.24,1.81h-1.33l-.41-1.71c-.07-.23-.15-.42-.24-.58-.09-.16-.24-.3-.45-.41-.21-.11-.45-.22-.73-.31-.29-.09-.62-.15-1.01-.17-.73-.02-1.33.14-1.81.48-.48.34-.72.88-.72,1.61,0,.55.16.99.48,1.33.32.34.72.62,1.21.84.49.22,1.01.43,1.56.63.77.3,1.5.63,2.19.99.68.37,1.24.83,1.66,1.4s.63,1.29.63,2.15c0,1.32-.51,2.35-1.54,3.08-1.03.73-2.36,1.09-4,1.09-.98,0-1.89-.11-2.74-.34-.84-.23-1.54-.47-2.09-.72Z"/>
    <path class="cls-1" d="M183.14,172.4c-1.66,0-2.89-.54-3.68-1.61-.79-1.07-1.18-2.48-1.18-4.24,0-1.64.31-3.16.94-4.56.63-1.4,1.5-2.54,2.62-3.4,1.12-.87,2.41-1.3,3.86-1.3,1.66,0,2.91.55,3.73,1.66.82,1.11,1.23,2.49,1.23,4.15s-.31,3.13-.94,4.55-1.5,2.56-2.63,3.44c-1.13.88-2.45,1.32-3.95,1.32ZM183.75,170.97c.71.02,1.32-.19,1.83-.65.51-.46.93-1.06,1.25-1.81.32-.75.56-1.58.72-2.48.16-.9.24-1.78.24-2.65,0-1.46-.23-2.59-.68-3.4s-1.11-1.23-1.95-1.25c-.68,0-1.28.22-1.79.67-.51.44-.94,1.04-1.27,1.8-.33.75-.58,1.57-.74,2.46-.16.89-.24,1.76-.24,2.6,0,1.5.23,2.66.68,3.47.46.81,1.11,1.23,1.95,1.25Z"/>
    <path class="cls-1" d="M192.68,178.12l2.77-21.48c.16-1.23.51-2.39,1.04-3.47.54-1.08,1.24-1.95,2.1-2.6.87-.65,1.87-.97,3.01-.97.41,0,.8.04,1.18.12.38.08.71.2,1.01.36.3.16.52.37.67.62.15.25.22.59.22,1.03,0,.39-.06.89-.17,1.5-.11.62-.25,1.19-.41,1.71h-1.3c-.14-1.32-.33-2.29-.56-2.91-.24-.62-.66-.92-1.25-.92-.75,0-1.39.46-1.92,1.39s-.88,2.19-1.06,3.81l-2.6,21.82h-2.74ZM192.75,159.44l.17-1.2c.46-.18.95-.33,1.47-.44.52-.11,1.14-.21,1.85-.27l.92.21h4.68l-.24,1.71h-8.86Z"/>
    <path class="cls-1" d="M215.66,172.3c-1.28,0-2.41-.29-3.39-.87-.98-.58-1.74-1.45-2.29-2.62s-.82-2.63-.82-4.41c0-1.53.22-3.02.65-4.48.43-1.46,1.09-2.78,1.97-3.97.88-1.19,1.96-2.13,3.25-2.82s2.78-1.04,4.46-1.04c.91,0,1.81.09,2.7.27.89.18,1.67.42,2.36.72-.07.82-.19,1.64-.36,2.44-.17.81-.35,1.54-.53,2.21h-1.61l-.17-2.22c-.02-.32-.07-.58-.15-.79-.08-.21-.26-.41-.53-.62-.23-.16-.53-.3-.91-.41-.38-.11-.8-.17-1.28-.17-1.05,0-1.99.27-2.82.82-.83.55-1.54,1.31-2.14,2.29-.59.98-1.04,2.11-1.35,3.4s-.46,2.66-.46,4.12c0,2.07.39,3.66,1.18,4.75.79,1.09,1.86,1.64,3.23,1.64.8,0,1.61-.21,2.43-.62.82-.41,1.5-1.09,2.05-2.05l.48,1.16c-.68,1.07-1.52,1.88-2.51,2.43-.99.55-2.14.82-3.44.82ZM221.99,172.2l-1.44-2.22h-.34l.75-6.16-3.15-.27.17-1.4h7.35l-.17,1.33-.79.14c-.27.07-.47.17-.58.31s-.19.38-.24.72l-.85,7.25-.72.31Z"/>
    <path class="cls-1" d="M229.24,172.2c-1.07,0-1.61-.57-1.61-1.71,0-.3.03-.69.08-1.18.06-.49.12-1.08.19-1.76l1.68-13.27c.04-.36.09-.74.14-1.13.04-.39.07-.67.07-.85,0-.27-.08-.47-.24-.6-.16-.12-.35-.19-.58-.19h-1.33l.14-1.13c1.28-.52,2.34-.79,3.18-.79.55,0,.95.13,1.2.38.25.25.38.64.38,1.16,0,.21-.02.46-.05.77-.03.31-.07.64-.12,1.01l-1.81,14.57c-.05.32-.08.67-.12,1.06-.03.39-.05.71-.05.96,0,.37.14.55.41.55.21,0,.48-.09.84-.26s.82-.43,1.39-.77l.51,1.06c-.59.66-1.29,1.18-2.1,1.56-.81.38-1.53.56-2.17.56Z"/>
    <path class="cls-1" d="M240.11,172.4c-1.66,0-2.89-.54-3.68-1.61-.79-1.07-1.18-2.48-1.18-4.24,0-1.64.31-3.16.94-4.56.63-1.4,1.5-2.54,2.62-3.4,1.12-.87,2.41-1.3,3.86-1.3,1.66,0,2.91.55,3.73,1.66.82,1.11,1.23,2.49,1.23,4.15s-.31,3.13-.94,4.55-1.5,2.56-2.63,3.44c-1.13.88-2.45,1.32-3.95,1.32ZM240.72,170.97c.71.02,1.32-.19,1.83-.65.51-.46.93-1.06,1.25-1.81.32-.75.56-1.58.72-2.48.16-.9.24-1.78.24-2.65,0-1.46-.23-2.59-.68-3.4s-1.11-1.23-1.95-1.25c-.68,0-1.28.22-1.79.67-.51.44-.94,1.04-1.27,1.8-.33.75-.58,1.57-.74,2.46-.16.89-.24,1.76-.24,2.6,0,1.5.23,2.66.68,3.47.46.81,1.11,1.23,1.95,1.25Z"/>
    <path class="cls-1" d="M250.4,172.37l-.48-.41,2.19-17.68c.04-.36.09-.74.14-1.13s.07-.67.07-.85c0-.27-.08-.47-.24-.6-.16-.12-.37-.19-.62-.19h-1.33l.17-1.13c1.25-.52,2.31-.79,3.18-.79.55,0,.94.13,1.18.38.24.25.36.64.36,1.16,0,.18-.02.42-.05.72-.03.3-.07.65-.12,1.06l-2.26,18.26-2.19,1.2ZM254.92,172.2c-.68,0-1.34-.07-1.97-.22s-1.2-.34-1.73-.56l.68-1.68c.46.36.96.63,1.52.8.56.17,1.13.26,1.73.26.98,0,1.8-.35,2.45-1.06.65-.71,1.13-1.61,1.45-2.7.32-1.09.48-2.21.48-3.35,0-1.28-.19-2.29-.56-3.03-.38-.74-.92-1.11-1.62-1.11-.66,0-1.36.37-2.1,1.11s-1.33,1.73-1.76,2.96l-.41-.24c.41-1.96,1.08-3.43,2.02-4.41.93-.98,2.02-1.47,3.25-1.47,1.14,0,2.1.46,2.87,1.37.77.91,1.16,2.31,1.16,4.21,0,1.76-.32,3.32-.97,4.7-.65,1.38-1.53,2.46-2.65,3.25s-2.39,1.18-3.83,1.18Z"/>
    <path class="cls-1" d="M268.56,172.27c-1.09,0-2.03-.46-2.8-1.37-.78-.91-1.15-2.34-1.13-4.27,0-1.71.31-3.25.94-4.63.63-1.38,1.5-2.47,2.63-3.28,1.13-.81,2.43-1.21,3.92-1.21.66,0,1.31.07,1.93.22.63.15,1.2.35,1.73.6l-.68,2.29c-.41-.64-.9-1.09-1.47-1.35-.57-.26-1.15-.39-1.74-.39-.8,0-1.48.21-2.03.63-.56.42-1.01.99-1.37,1.69-.35.71-.61,1.48-.77,2.33-.16.84-.24,1.69-.24,2.53-.02,1.28.15,2.29.51,3.04s.88,1.13,1.54,1.13c.41,0,.87-.17,1.38-.5.51-.33,1-.8,1.45-1.42.46-.62.84-1.34,1.16-2.19l.41.24c-.41,1.98-1.12,3.47-2.12,4.45-1,.98-2.09,1.47-3.25,1.47ZM274.75,172.2c-.55,0-.95-.17-1.21-.5-.26-.33-.39-.84-.39-1.52,0-.25.01-.58.03-.97.02-.4.06-.91.1-1.52l1.13-9.17,2.19-1.2.48.41-1.2,9.75c-.02.3-.05.64-.08,1.03-.03.39-.05.68-.05.89,0,.43.14.65.41.65.21,0,.48-.09.84-.26s.82-.43,1.39-.77l.51,1.06c-.62.66-1.32,1.18-2.1,1.56-.79.38-1.46.56-2.03.56Z"/>
    <path class="cls-1" d="M282.82,172.2c-1.07,0-1.61-.57-1.61-1.71,0-.3.03-.69.08-1.18.06-.49.12-1.08.19-1.76l1.68-13.27c.04-.36.09-.74.14-1.13.04-.39.07-.67.07-.85,0-.27-.08-.47-.24-.6-.16-.12-.35-.19-.58-.19h-1.33l.14-1.13c1.28-.52,2.34-.79,3.18-.79.55,0,.95.13,1.2.38.25.25.38.64.38,1.16,0,.21-.02.46-.05.77-.03.31-.07.64-.12,1.01l-1.81,14.57c-.05.32-.08.67-.12,1.06-.03.39-.05.71-.05.96,0,.37.14.55.41.55.21,0,.48-.09.84-.26s.82-.43,1.39-.77l.51,1.06c-.59.66-1.29,1.18-2.1,1.56-.81.38-1.53.56-2.17.56Z"/>
    <path class="cls-1" d="M303.51,172.34c-1.62,0-2.99-.3-4.12-.91-1.13-.6-1.99-1.5-2.58-2.7-.59-1.2-.89-2.68-.89-4.46,0-1.53.22-3.01.65-4.46.43-1.45,1.08-2.75,1.95-3.92.87-1.16,1.95-2.08,3.25-2.75,1.3-.67,2.83-1.01,4.58-1.01.82,0,1.65.07,2.5.22.84.15,1.61.35,2.29.6-.07.71-.19,1.5-.36,2.39s-.36,1.72-.56,2.5h-1.57l-.14-2.33c-.02-.34-.07-.63-.14-.87s-.26-.45-.58-.63c-.52-.3-1.19-.44-1.98-.44-1.07,0-2.02.29-2.86.87-.83.58-1.54,1.37-2.12,2.36s-1.02,2.12-1.32,3.37c-.3,1.25-.45,2.56-.45,3.93,0,2.12.41,3.79,1.21,5.01.81,1.22,2.01,1.83,3.61,1.83.43,0,.84-.05,1.23-.15.39-.1.71-.24.96-.43.27-.18.46-.38.56-.6.1-.22.2-.46.29-.74l.82-2.56,1.64.07c0,.71-.03,1.49-.1,2.34s-.18,1.68-.34,2.48c-.78.3-1.64.54-2.6.72-.96.18-1.9.27-2.84.27Z"/>
    <path class="cls-1" d="M315.38,172.2c-1.07,0-1.61-.58-1.61-1.74,0-.41.03-.86.09-1.35.06-.49.13-1.01.22-1.56l.79-5.33c.07-.41.12-.77.15-1.09.03-.32.05-.58.05-.79,0-.36-.07-.6-.22-.72-.15-.11-.35-.17-.6-.17h-1.33l.14-1.16c.62-.25,1.2-.44,1.74-.58.55-.14,1.01-.21,1.4-.21.55,0,.95.13,1.21.38.26.25.39.65.39,1.2,0,.21-.02.46-.05.77-.03.31-.08.63-.12.97l-.96,6.67c-.05.34-.09.7-.14,1.08-.05.38-.07.68-.07.91,0,.39.14.58.41.58.23,0,.52-.09.87-.27.35-.18.81-.43,1.38-.75l.51,1.06c-.62.66-1.32,1.18-2.1,1.56-.79.38-1.51.56-2.17.56ZM316.71,155.34c-.5,0-.91-.14-1.21-.43-.31-.28-.46-.68-.46-1.18s.18-.95.55-1.33c.36-.39.83-.58,1.4-.58.52,0,.94.15,1.25.44s.46.68.46,1.16-.19.95-.56,1.33c-.38.39-.85.58-1.42.58Z"/>
    <path class="cls-1" d="M321.39,159.41l.14-1.16c.41-.16.88-.3,1.4-.43.52-.12,1.07-.21,1.64-.26l.96.17h5.06l-.21,1.68h-8.99ZM325.22,172.23c-.87,0-1.54-.26-2.02-.77-.48-.51-.72-1.36-.72-2.55,0-.46.03-.98.1-1.57.07-.59.12-1.11.17-1.54l.92-7.25,1.68-5.03h1.5l-1.44,11.66c-.07.46-.13.95-.17,1.49-.05.54-.07.99-.07,1.35,0,.75.1,1.3.31,1.64.21.34.54.51.99.51.43,0,.88-.11,1.35-.32.47-.22.95-.48,1.45-.8l.58,1.06c-.48.5-1.14.98-1.98,1.44-.84.46-1.73.68-2.67.68Z"/>
    <path class="cls-1" d="M334.35,172.2c-1.07,0-1.61-.58-1.61-1.74,0-.41.03-.86.09-1.35.06-.49.13-1.01.22-1.56l.79-5.33c.07-.41.12-.77.15-1.09.03-.32.05-.58.05-.79,0-.36-.07-.6-.22-.72-.15-.11-.35-.17-.6-.17h-1.33l.14-1.16c.62-.25,1.2-.44,1.74-.58.55-.14,1.01-.21,1.4-.21.55,0,.95.13,1.21.38.26.25.39.65.39,1.2,0,.21-.02.46-.05.77-.03.31-.08.63-.12.97l-.96,6.67c-.05.34-.09.7-.14,1.08-.05.38-.07.68-.07.91,0,.39.14.58.41.58.23,0,.52-.09.87-.27.35-.18.81-.43,1.38-.75l.51,1.06c-.62.66-1.32,1.18-2.1,1.56-.79.38-1.51.56-2.17.56ZM335.69,155.34c-.5,0-.91-.14-1.21-.43-.31-.28-.46-.68-.46-1.18s.18-.95.55-1.33c.36-.39.83-.58,1.4-.58.52,0,.94.15,1.25.44s.46.68.46,1.16-.19.95-.56,1.33c-.38.39-.85.58-1.42.58Z"/>
    <path class="cls-1" d="M340.68,172.2l-1.03-.89,10.22-12.11.03,1.06-4-.34c-.68-.07-1.21-.06-1.57.03-.37.09-.64.3-.84.62-.19.32-.38.82-.56,1.5h-1.27c-.02-.34-.04-.66-.05-.94-.01-.28-.02-.54-.02-.77,0-.57.07-1.04.21-1.42.14-.38.38-.69.72-.94.25-.18.52-.31.8-.38.28-.07.6-.1.94-.1.39,0,.88.03,1.49.1.6.07,1.21.14,1.83.21l2.36.27,1.95-.79.89.92-10.09,12.04.14-1.23,4.1.51c.18.05.38.08.58.1.21.02.39.03.55.03.66,0,1.21-.21,1.64-.63.43-.42.84-1.23,1.23-2.41l1.27.21c-.16,1.32-.37,2.38-.62,3.16s-.62,1.35-1.11,1.68c-.49.33-1.13.5-1.93.5-.5,0-1-.05-1.5-.15-.5-.1-1.01-.21-1.54-.32l-2.84-.58-1.98,1.06Z"/>
    <path class="cls-1" d="M361.64,157.29c1.19,0,2.13.29,2.82.87.7.58,1.04,1.35,1.04,2.31s-.36,1.74-1.09,2.36c-.73.62-1.79,1.11-3.18,1.47-1.39.37-3.09.66-5.09.89l.1-1.27c1.69-.23,3.01-.52,3.97-.87.96-.35,1.63-.76,2.03-1.23.4-.47.6-.97.6-1.52s-.17-.92-.5-1.18c-.33-.26-.74-.39-1.21-.39-.84,0-1.57.33-2.17.97-.6.65-1.07,1.51-1.38,2.58-.32,1.07-.48,2.23-.48,3.49,0,1.5.24,2.66.72,3.45.48.8,1.17,1.2,2.09,1.2.64,0,1.31-.19,2.02-.56.71-.38,1.44-.88,2.19-1.52l.72.99c-.68.84-1.54,1.57-2.58,2.17-1.04.6-2.17.91-3.4.91-1.48,0-2.62-.51-3.4-1.54-.79-1.03-1.18-2.44-1.18-4.24,0-1.64.3-3.17.91-4.58.6-1.41,1.46-2.56,2.58-3.44,1.12-.88,2.42-1.32,3.9-1.32Z"/>
    <path class="cls-1" d="M368.17,171.96l1.23-9.75c.04-.27.09-.63.14-1.06.04-.43.07-.74.07-.92,0-.27-.08-.47-.24-.6-.16-.12-.35-.19-.58-.19h-1.33l.14-1.16c.62-.25,1.2-.44,1.76-.58s1.03-.21,1.42-.21c.64,0,1.04.19,1.21.56.17.38.23.88.19,1.52l-.07,1.71-1.23,10.67h-2.7ZM377.89,172.2c-.46,0-.83-.12-1.13-.36s-.44-.66-.44-1.25c0-.36.03-.8.1-1.32.07-.51.16-1.08.27-1.69.09-.59.2-1.24.33-1.95.12-.71.23-1.41.31-2.1.08-.69.12-1.3.12-1.83,0-.68-.12-1.22-.36-1.61s-.63-.58-1.18-.58-1.07.18-1.62.53c-.56.35-1.08.82-1.57,1.38-.49.57-.88,1.17-1.18,1.81l-.17-.89c.59-1.57,1.39-2.78,2.39-3.61,1-.83,2.06-1.25,3.18-1.25.98,0,1.76.32,2.34.97s.87,1.54.87,2.68c0,.59-.05,1.25-.15,1.98-.1.73-.22,1.46-.36,2.21-.14.74-.26,1.42-.38,2.03-.07.48-.13.9-.17,1.25-.05.35-.07.64-.07.87,0,.37.14.55.41.55.21,0,.48-.09.84-.26.35-.17.83-.43,1.42-.77l.51,1.06c-.62.66-1.33,1.18-2.14,1.56-.81.38-1.53.56-2.17.56Z"/>
    <path class="cls-1" d="M396.42,172.34c-1.05,0-2.04-.12-2.97-.36-.94-.24-1.73-.56-2.39-.97.05-.91.15-1.81.31-2.68.16-.88.34-1.7.55-2.48h1.54l.14,2.63c.02.32.05.59.08.82.03.23.19.46.46.68.32.3.73.53,1.23.7.5.17,1.03.26,1.57.26,1.16,0,2.12-.34,2.86-1.03.74-.68,1.11-1.55,1.11-2.6,0-.77-.19-1.42-.58-1.93-.39-.51-.88-.96-1.47-1.35s-1.23-.76-1.9-1.13c-.67-.36-1.31-.76-1.9-1.2-.59-.43-1.08-.97-1.45-1.61s-.56-1.44-.56-2.39c0-1.12.29-2.09.86-2.92.57-.83,1.36-1.49,2.38-1.97,1.01-.48,2.21-.72,3.57-.72.75,0,1.54.08,2.36.24.82.16,1.58.38,2.29.65-.05.73-.13,1.51-.26,2.34-.13.83-.28,1.64-.46,2.41h-1.54l-.21-2.36c-.02-.23-.06-.46-.12-.7-.06-.24-.22-.45-.5-.63s-.59-.33-.96-.43-.79-.15-1.26-.15c-1.07,0-1.92.33-2.55.99-.63.66-.94,1.44-.94,2.33,0,.71.19,1.31.56,1.8.38.49.87.92,1.47,1.3.6.38,1.25.75,1.93,1.11s1.33.78,1.93,1.23c.6.46,1.1,1.01,1.49,1.66.39.65.58,1.46.58,2.44,0,1.19-.3,2.23-.91,3.13-.6.9-1.45,1.61-2.55,2.12-1.09.51-2.36.77-3.8.77Z"/>
    <path class="cls-1" d="M411.33,172.4c-1.66,0-2.89-.54-3.68-1.61-.79-1.07-1.18-2.48-1.18-4.24,0-1.64.31-3.16.94-4.56.63-1.4,1.5-2.54,2.62-3.4,1.12-.87,2.41-1.3,3.86-1.3,1.66,0,2.91.55,3.73,1.66.82,1.11,1.23,2.49,1.23,4.15s-.31,3.13-.94,4.55-1.5,2.56-2.63,3.44c-1.13.88-2.45,1.32-3.95,1.32ZM411.94,170.97c.71.02,1.32-.19,1.83-.65.51-.46.93-1.06,1.25-1.81.32-.75.56-1.58.72-2.48.16-.9.24-1.78.24-2.65,0-1.46-.23-2.59-.68-3.4s-1.11-1.23-1.95-1.25c-.68,0-1.28.22-1.79.67-.51.44-.94,1.04-1.27,1.8-.33.75-.58,1.57-.74,2.46-.16.89-.24,1.76-.24,2.6,0,1.5.23,2.66.68,3.47.46.81,1.11,1.23,1.95,1.25Z"/>
    <path class="cls-1" d="M422.92,172.2c-1.07,0-1.61-.57-1.61-1.71,0-.3.03-.69.08-1.18.06-.49.12-1.08.19-1.76l1.68-13.27c.04-.36.09-.74.14-1.13.04-.39.07-.67.07-.85,0-.27-.08-.47-.24-.6-.16-.12-.35-.19-.58-.19h-1.33l.14-1.13c1.28-.52,2.34-.79,3.18-.79.55,0,.95.13,1.2.38.25.25.38.64.38,1.16,0,.21-.02.46-.05.77-.03.31-.07.64-.12,1.01l-1.81,14.57c-.05.32-.08.67-.12,1.06-.03.39-.05.71-.05.96,0,.37.14.55.41.55.21,0,.48-.09.84-.26s.82-.43,1.39-.77l.51,1.06c-.59.66-1.29,1.18-2.1,1.56-.81.38-1.53.56-2.17.56Z"/>
    <path class="cls-1" d="M432.94,172.2c-.96,0-1.71-.32-2.26-.96-.55-.64-.82-1.53-.82-2.67,0-.59.06-1.28.17-2.07.11-.79.24-1.57.38-2.34.14-.77.25-1.44.34-1.98.04-.34.09-.7.14-1.06.04-.36.07-.66.07-.89,0-.27-.08-.47-.24-.6-.16-.12-.35-.19-.58-.19h-1.33l.14-1.16c.62-.25,1.2-.44,1.74-.58.55-.14,1.03-.21,1.44-.21,1.05,0,1.57.54,1.57,1.61,0,.18-.01.42-.03.7-.02.29-.06.62-.1,1.01-.11.73-.25,1.55-.41,2.46-.16.91-.3,1.79-.41,2.63-.12.84-.17,1.56-.17,2.15,0,.64.11,1.16.33,1.56s.59.6,1.11.6,1.03-.17,1.57-.51c.55-.34,1.06-.79,1.54-1.33.48-.55.87-1.13,1.16-1.74l.21.89c-.59,1.53-1.4,2.69-2.41,3.49-1.01.8-2.06,1.2-3.13,1.2ZM439.2,172.2c-.48,0-.85-.15-1.11-.46-.26-.31-.41-.8-.43-1.49,0-.27.02-.67.05-1.18s.06-.97.08-1.38l1.16-9.95h2.67l-1.16,9.17c-.07.48-.12.95-.15,1.4-.03.46-.05.83-.05,1.13,0,.41.14.62.41.62.21,0,.48-.09.84-.26.35-.17.81-.43,1.38-.77l.51,1.06c-.62.66-1.31,1.18-2.09,1.56-.78.38-1.48.56-2.12.56Z"/>
    <path class="cls-1" d="M445.05,159.41l.14-1.16c.41-.16.88-.3,1.4-.43.52-.12,1.07-.21,1.64-.26l.96.17h5.06l-.21,1.68h-8.99ZM448.88,172.23c-.87,0-1.54-.26-2.02-.77-.48-.51-.72-1.36-.72-2.55,0-.46.03-.98.1-1.57.07-.59.12-1.11.17-1.54l.92-7.25,1.68-5.03h1.5l-1.44,11.66c-.07.46-.13.95-.17,1.49-.05.54-.07.99-.07,1.35,0,.75.1,1.3.31,1.64.21.34.54.51.99.51.43,0,.88-.11,1.35-.32.47-.22.95-.48,1.45-.8l.58,1.06c-.48.5-1.14.98-1.98,1.44-.84.46-1.73.68-2.67.68Z"/>
    <path class="cls-1" d="M458.01,172.2c-1.07,0-1.61-.58-1.61-1.74,0-.41.03-.86.09-1.35.06-.49.13-1.01.22-1.56l.79-5.33c.07-.41.12-.77.15-1.09.03-.32.05-.58.05-.79,0-.36-.07-.6-.22-.72-.15-.11-.35-.17-.6-.17h-1.33l.14-1.16c.62-.25,1.2-.44,1.74-.58.55-.14,1.01-.21,1.4-.21.55,0,.95.13,1.21.38.26.25.39.65.39,1.2,0,.21-.02.46-.05.77-.03.31-.08.63-.12.97l-.96,6.67c-.05.34-.09.7-.14,1.08-.05.38-.07.68-.07.91,0,.39.14.58.41.58.23,0,.52-.09.87-.27.35-.18.81-.43,1.38-.75l.51,1.06c-.62.66-1.32,1.18-2.1,1.56-.79.38-1.51.56-2.17.56ZM459.34,155.34c-.5,0-.91-.14-1.21-.43-.31-.28-.46-.68-.46-1.18s.18-.95.55-1.33c.36-.39.83-.58,1.4-.58.52,0,.94.15,1.25.44s.46.68.46,1.16-.19.95-.56,1.33c-.38.39-.85.58-1.42.58Z"/>
    <path class="cls-1" d="M468.85,172.4c-1.66,0-2.89-.54-3.68-1.61-.79-1.07-1.18-2.48-1.18-4.24,0-1.64.31-3.16.94-4.56.63-1.4,1.5-2.54,2.62-3.4,1.12-.87,2.41-1.3,3.86-1.3,1.66,0,2.91.55,3.73,1.66.82,1.11,1.23,2.49,1.23,4.15s-.31,3.13-.94,4.55-1.5,2.56-2.63,3.44c-1.13.88-2.45,1.32-3.95,1.32ZM469.46,170.97c.71.02,1.32-.19,1.83-.65.51-.46.93-1.06,1.25-1.81.32-.75.56-1.58.72-2.48.16-.9.24-1.78.24-2.65,0-1.46-.23-2.59-.68-3.4s-1.11-1.23-1.95-1.25c-.68,0-1.28.22-1.79.67-.51.44-.94,1.04-1.27,1.8-.33.75-.58,1.57-.74,2.46-.16.89-.24,1.76-.24,2.6,0,1.5.23,2.66.68,3.47.46.81,1.11,1.23,1.95,1.25Z"/>
    <path class="cls-1" d="M479.24,171.96l1.23-9.75c.04-.27.09-.63.14-1.06.04-.43.07-.74.07-.92,0-.27-.08-.47-.24-.6-.16-.12-.35-.19-.58-.19h-1.33l.14-1.16c.62-.25,1.2-.44,1.76-.58s1.03-.21,1.42-.21c.64,0,1.04.19,1.21.56.17.38.23.88.19,1.52l-.07,1.71-1.23,10.67h-2.7ZM488.95,172.2c-.46,0-.83-.12-1.13-.36s-.44-.66-.44-1.25c0-.36.03-.8.1-1.32.07-.51.16-1.08.27-1.69.09-.59.2-1.24.33-1.95.12-.71.23-1.41.31-2.1.08-.69.12-1.3.12-1.83,0-.68-.12-1.22-.36-1.61s-.63-.58-1.18-.58-1.07.18-1.62.53c-.56.35-1.08.82-1.57,1.38-.49.57-.88,1.17-1.18,1.81l-.17-.89c.59-1.57,1.39-2.78,2.39-3.61,1-.83,2.06-1.25,3.18-1.25.98,0,1.76.32,2.34.97s.87,1.54.87,2.68c0,.59-.05,1.25-.15,1.98-.1.73-.22,1.46-.36,2.21-.14.74-.26,1.42-.38,2.03-.07.48-.13.9-.17,1.25-.05.35-.07.64-.07.87,0,.37.14.55.41.55.21,0,.48-.09.84-.26.35-.17.83-.43,1.42-.77l.51,1.06c-.62.66-1.33,1.18-2.14,1.56-.81.38-1.53.56-2.17.56Z"/>
    <path class="cls-1" d="M499.15,172.37c-.62,0-1.19-.05-1.73-.15-.54-.1-1.01-.27-1.42-.5-.41-.23-.72-.5-.92-.8s-.31-.7-.31-1.18c0-.36.06-.78.17-1.25.11-.47.24-.91.38-1.32h1.44c.07,1.28.36,2.22.87,2.84.51.62,1.26.92,2.24.92.75,0,1.38-.19,1.9-.58.51-.39.77-.92.77-1.61,0-.64-.22-1.17-.65-1.61-.43-.43-.97-.81-1.61-1.15-.64-.33-1.28-.68-1.93-1.06-.65-.38-1.19-.83-1.62-1.35-.43-.52-.65-1.2-.65-2.02,0-.77.23-1.49.7-2.14.47-.65,1.11-1.17,1.93-1.56.82-.39,1.77-.58,2.84-.58.55,0,1.08.05,1.59.15.51.1.95.23,1.32.39.37.21.62.42.75.65.14.23.21.51.21.85s-.05.74-.15,1.18c-.1.44-.21.86-.32,1.25h-1.37c-.11-1.07-.39-1.85-.84-2.34-.44-.49-1.04-.74-1.79-.74s-1.33.2-1.74.6c-.41.4-.62.87-.62,1.42,0,.64.22,1.16.65,1.56.43.4.97.76,1.62,1.09.65.33,1.29.68,1.93,1.04.64.37,1.18.82,1.62,1.37.44.55.67,1.24.67,2.09s-.25,1.61-.74,2.29-1.18,1.23-2.07,1.62c-.89.4-1.93.6-3.11.6Z"/>
  </g>
  <polygon class="cls-1" points="67.36 18.45 73.65 12.16 72.94 11.46 65.95 18.45 65.94 18.45 24.7 59.68 24.71 59.68 19.15 65.24 19.85 65.95 26.12 59.68 42.44 59.68 42.44 253 85.45 253 85.45 18.45 67.36 18.45"/>
  <path class="cls-1" d="M315.67,51.73l-8.3,12.18c-26.07-33.82-69.76-52.11-114.59-43.61-63.51,12.05-105.24,73.3-93.19,136.82,8.5,44.82,41.51,78.77,82.52,90.65l-7.64,11.21.83.56,42.83-62.87-.83-.56-6.98,10.25c-31.79-1.89-59.47-25.07-65.68-57.79-7.33-38.63,18.05-75.89,56.68-83.22,32.72-6.21,64.43,11.06,77.83,39.96l-6.32,9.27.83.56,42.83-62.87-.83-.56Z"/>
</svg>